<svg width="700" height="796" viewBox="0 0 700 796" fill="none" xmlns="http://www.w3.org/2000/svg">
<path d="M329.5 5.49293C342.185 -1.83098 357.815 -1.83097 370.5 5.49293L679.5 183.894C692.185 191.218 700 204.753 700 219.401V576.204C700 590.852 692.185 604.387 679.5 611.711L370.5 790.112C357.815 797.436 342.185 797.436 329.5 790.112L20.5 611.711C7.81461 604.387 3.33346e-05 590.852 0 576.204V219.401C6.21464e-05 204.753 7.81461 191.218 20.5 183.894L329.5 5.49293ZM370.5 56.0115C357.815 48.6875 342.185 48.6875 329.5 56.0115L64.25 209.153C51.5647 216.477 43.7502 230.012 43.75 244.66V550.945C43.7501 565.593 51.5647 579.128 64.25 586.452L329.5 739.594C342.185 746.917 357.815 746.917 370.5 739.594L635.75 586.452C648.435 579.128 656.25 565.593 656.25 550.945V244.66C656.25 230.012 648.435 216.477 635.75 209.153L370.5 56.0115Z" fill="#0090B8"/>
<path d="M274.925 88.5479C286.147 79.1301 301.542 76.4156 315.308 81.4273L580.611 178.013C594.374 183.023 604.418 194.996 606.962 209.42L655.998 487.517C658.541 501.941 653.197 516.626 641.977 526.041L425.709 707.541C414.487 716.959 399.092 719.673 385.326 714.662L120.024 618.076C106.261 613.065 96.216 601.094 93.6725 586.67L44.6366 308.573C42.0932 294.149 47.4375 279.463 58.6567 270.047L274.925 88.5479ZM322.465 122.017C308.699 117.005 293.304 119.72 282.082 129.138L97.3805 284.145C86.1611 293.56 80.817 308.246 83.3604 322.67L125.239 560.177C127.783 574.602 137.827 586.574 151.59 591.585L378.169 674.072C391.935 679.084 407.33 676.369 418.552 666.951L603.254 511.944C614.473 502.529 619.817 487.843 617.274 473.418L575.395 235.911C572.852 221.487 562.807 209.515 549.044 204.504L322.465 122.017Z" fill="#0081B8"/>
<path d="M243.037 163.03C252.451 151.814 267.133 146.47 281.555 149.011L500.446 187.576C514.874 190.118 526.849 200.165 531.859 213.931L607.851 422.717C612.861 436.483 610.146 451.877 600.728 463.098L457.837 633.341C448.422 644.557 433.74 649.901 419.318 647.36L200.428 608.795C186 606.253 174.025 596.206 169.014 582.44L93.0227 373.655C88.0122 359.888 90.7277 344.495 100.146 333.273L243.037 163.03ZM293.079 180.671C278.657 178.131 263.975 183.474 254.56 194.691L133.335 339.12C123.917 350.342 121.201 365.735 126.212 379.502L190.68 556.627C195.691 570.394 207.666 580.441 222.093 582.983L407.795 615.7C422.217 618.241 436.899 612.897 446.313 601.68L567.539 457.251C576.957 446.03 579.673 430.636 574.662 416.869L510.193 239.744C505.183 225.977 493.208 215.931 478.78 213.389L293.079 180.671Z" fill="#006BB8"/>
<path d="M227.842 226.747C235.166 214.071 248.693 206.261 263.333 206.257L437.087 206.208C451.739 206.204 465.279 214.019 472.605 226.708L559.417 377.07C566.743 389.759 566.741 405.394 559.412 418.081L472.492 568.531C465.168 581.207 451.641 589.017 437.002 589.021L263.248 589.071C248.596 589.075 235.055 581.259 227.729 568.57L140.917 418.208C133.591 405.519 133.594 389.885 140.923 377.198L227.842 226.747ZM277.144 230.179C262.504 230.183 248.977 237.993 241.654 250.669L168.559 377.191C161.23 389.878 161.228 405.512 168.554 418.201L241.554 544.641C248.88 557.33 262.421 565.145 277.072 565.141L423.191 565.1C437.83 565.096 451.357 557.286 458.681 544.61L531.775 418.088C539.105 405.401 539.106 389.767 531.78 377.078L458.78 250.638C451.454 237.949 437.914 230.134 423.262 230.138L277.144 230.179Z" fill="#005FB8"/>
<path d="M224.865 280.937C229.876 267.18 241.842 257.138 256.261 254.593L389.287 231.107C403.715 228.56 418.405 233.905 427.823 245.128L514.597 348.542C524.015 359.765 526.728 375.161 521.714 388.927L475.485 515.854C470.475 529.612 458.508 539.653 444.089 542.199L311.063 565.684C296.636 568.231 281.945 562.886 272.527 551.663L185.753 448.249C176.335 437.026 173.623 421.63 178.637 407.864L224.865 280.937ZM270.913 272.054C256.494 274.6 244.527 284.641 239.517 298.398L201.092 403.899C196.078 417.665 198.791 433.061 208.208 444.285L280.331 530.237C289.748 541.461 304.439 546.805 318.867 544.258L429.438 524.737C443.856 522.192 455.823 512.15 460.834 498.393L499.259 392.892C504.273 379.126 501.56 363.73 492.142 352.507L420.019 266.554C410.602 255.331 395.911 249.985 381.483 252.533L270.913 272.054Z" fill="#004AB8"/>
<path d="M230.238 324.577C232.784 310.159 242.824 298.193 256.581 293.182L354.213 257.619C367.98 252.605 383.376 255.317 394.6 264.735L474.133 331.471C485.357 340.889 490.702 355.581 488.155 370.009L470.086 472.334C467.54 486.752 457.499 498.718 443.743 503.728L346.11 539.291C332.343 544.306 316.946 541.593 305.723 532.175L226.189 465.439C214.966 456.021 209.621 441.33 212.169 426.902L230.238 324.577ZM271.057 305.329C257.3 310.34 247.26 322.306 244.714 336.724L229.932 420.431C227.384 434.859 232.73 449.551 243.954 458.969L309.011 513.558C320.234 522.975 335.63 525.688 349.397 520.674L429.266 491.581C443.023 486.571 453.063 474.605 455.609 460.187L470.39 376.479C472.938 362.051 467.593 347.36 456.37 337.942L391.313 283.353C380.089 273.935 364.692 271.222 350.926 276.236L271.057 305.329Z" fill="#002BB8"/>
<path d="M241.007 358.889C241.01 344.247 248.821 330.717 261.5 323.394L329.484 284.124C342.17 276.797 357.803 276.796 370.491 284.121L438.432 323.347C451.12 330.672 458.935 344.211 458.932 358.861L458.917 437.372C458.914 452.014 451.102 465.544 438.423 472.867L370.439 512.136C357.752 519.464 342.12 519.465 329.432 512.14L261.491 472.914C248.804 465.589 240.988 452.05 240.991 437.399L241.007 358.889ZM275.119 331.256C262.44 338.58 254.629 352.11 254.626 366.752L254.613 429.531C254.61 444.182 262.425 457.721 275.113 465.046L329.435 496.409C342.123 503.734 357.755 503.732 370.441 496.405L424.804 465.004C437.483 457.681 445.294 444.151 445.297 429.509L445.31 366.729C445.313 352.079 437.498 338.54 424.81 331.214L370.488 299.852C357.8 292.526 342.168 292.528 329.481 299.856L275.119 331.256Z" fill="#0019B8"/>
</svg>
